<mxfile host="app.diagrams.net" agent="Mozilla/5.0 (Windows NT 10.0; Win64; x64) AppleWebKit/537.36 (KHTML, like Gecko) Chrome/132.0.0.0 Safari/537.36 Edg/132.0.0.0" version="26.0.10">
  <diagram name="Pagina-1" id="RDr8B0PNbTxYUrIXrZGD">
    <mxGraphModel dx="3204" dy="1302" grid="1" gridSize="10" guides="1" tooltips="1" connect="1" arrows="1" fold="1" page="1" pageScale="1" pageWidth="827" pageHeight="1169" math="0" shadow="0">
      <root>
        <mxCell id="0" />
        <mxCell id="1" parent="0" />
        <mxCell id="3Z7lKHtcf9GDz0rVuoE6-2" value="TEAM FE" style="rounded=1;whiteSpace=wrap;html=1;" parent="1" vertex="1">
          <mxGeometry x="360" y="30" width="120" height="60" as="geometry" />
        </mxCell>
        <mxCell id="3Z7lKHtcf9GDz0rVuoE6-9" value="" style="shape=partialRectangle;whiteSpace=wrap;html=1;top=0;left=0;fillColor=none;" parent="1" vertex="1">
          <mxGeometry x="300" y="90" width="120" height="60" as="geometry" />
        </mxCell>
        <mxCell id="3Z7lKHtcf9GDz0rVuoE6-10" value="" style="shape=partialRectangle;whiteSpace=wrap;html=1;bottom=0;right=0;fillColor=none;" parent="1" vertex="1">
          <mxGeometry x="-70" y="150" width="370" height="50" as="geometry" />
        </mxCell>
        <mxCell id="3Z7lKHtcf9GDz0rVuoE6-11" value="Manuela" style="rounded=1;whiteSpace=wrap;html=1;" parent="1" vertex="1">
          <mxGeometry x="-130" y="200" width="120" height="60" as="geometry" />
        </mxCell>
        <mxCell id="3Z7lKHtcf9GDz0rVuoE6-15" value="Vincenzo Chianese" style="rounded=1;whiteSpace=wrap;html=1;points=[[0,0,0,0,0],[0,0.25,0,0,0],[0,0.5,0,0,0],[0,0.75,0,0,0],[0,1,0,0,0],[0.25,0,0,0,0],[0.25,1,0,0,0],[0.5,0,0,0,0],[0.5,1,0,0,0],[0.75,0,0,0,0],[0.75,1,0,0,0],[1,0,0,0,0],[1,0.25,0,0,0],[1,0.5,0,0,0],[1,0.75,0,0,0],[1,1,0,0,0]];" parent="1" vertex="1">
          <mxGeometry x="160" y="200" width="120" height="60" as="geometry" />
        </mxCell>
        <mxCell id="3Z7lKHtcf9GDz0rVuoE6-18" value="" style="endArrow=none;html=1;rounded=0;" parent="1" target="3Z7lKHtcf9GDz0rVuoE6-10" edge="1">
          <mxGeometry width="50" height="50" relative="1" as="geometry">
            <mxPoint x="230" y="200" as="sourcePoint" />
            <mxPoint x="260" y="140" as="targetPoint" />
          </mxGeometry>
        </mxCell>
        <mxCell id="3Z7lKHtcf9GDz0rVuoE6-20" value="" style="endArrow=none;html=1;rounded=0;" parent="1" edge="1">
          <mxGeometry width="50" height="50" relative="1" as="geometry">
            <mxPoint x="220" y="199" as="sourcePoint" />
            <mxPoint x="220" y="150" as="targetPoint" />
          </mxGeometry>
        </mxCell>
        <mxCell id="3Z7lKHtcf9GDz0rVuoE6-21" value="Vincenzo Cavataio" style="rounded=1;whiteSpace=wrap;html=1;points=[[0,0,0,0,0],[0,0.25,0,0,0],[0,0.5,0,0,0],[0,0.75,0,0,0],[0,1,0,0,0],[0.25,0,0,0,0],[0.25,1,0,0,0],[0.5,0,0,0,0],[0.5,1,0,0,0],[0.75,0,0,0,0],[0.75,1,0,0,0],[1,0,0,0,0],[1,0.25,0,0,0],[1,0.5,0,0,0],[1,0.75,0,0,0],[1,1,0,0,0]];" parent="1" vertex="1">
          <mxGeometry x="300" y="200" width="120" height="60" as="geometry" />
        </mxCell>
        <mxCell id="3Z7lKHtcf9GDz0rVuoE6-22" value="Lucio Chiummo" style="rounded=1;whiteSpace=wrap;html=1;points=[[0,0,0,0,0],[0,0.25,0,0,0],[0,0.5,0,0,0],[0,0.75,0,0,0],[0,1,0,0,0],[0.25,0,0,0,0],[0.25,1,0,0,0],[0.5,0,0,0,0],[0.5,1,0,0,0],[0.75,0,0,0,0],[0.75,1,0,0,0],[1,0,0,0,0],[1,0.25,0,0,0],[1,0.5,0,0,0],[1,0.75,0,0,0],[1,1,0,0,0]];" parent="1" vertex="1">
          <mxGeometry x="440" y="200" width="120" height="60" as="geometry" />
        </mxCell>
        <mxCell id="3Z7lKHtcf9GDz0rVuoE6-23" value="Marco Pepe" style="rounded=1;whiteSpace=wrap;html=1;points=[[0,0,0,0,0],[0,0.25,0,0,0],[0,0.5,0,0,0],[0,0.75,0,0,0],[0,1,0,0,0],[0.25,0,0,0,0],[0.25,1,0,0,0],[0.5,0,0,0,0],[0.5,1,0,0,0],[0.75,0,0,0,0],[0.75,1,0,0,0],[1,0,0,0,0],[1,0.25,0,0,0],[1,0.5,0,0,0],[1,0.75,0,0,0],[1,1,0,0,0]];" parent="1" vertex="1">
          <mxGeometry x="570" y="200" width="120" height="60" as="geometry" />
        </mxCell>
        <mxCell id="3Z7lKHtcf9GDz0rVuoE6-24" value="Pasquale Palena" style="rounded=1;whiteSpace=wrap;html=1;points=[[0,0,0,0,0],[0,0.25,0,0,0],[0,0.5,0,0,0],[0,0.75,0,0,0],[0,1,0,0,0],[0.25,0,0,0,0],[0.25,1,0,0,0],[0.5,0,0,0,0],[0.5,1,0,0,0],[0.75,0,0,0,0],[0.75,1,0,0,0],[1,0,0,0,0],[1,0.25,0,0,0],[1,0.5,0,0,0],[1,0.75,0,0,0],[1,1,0,0,0]];" parent="1" vertex="1">
          <mxGeometry x="700" y="200" width="120" height="60" as="geometry" />
        </mxCell>
        <mxCell id="3Z7lKHtcf9GDz0rVuoE6-25" value="" style="endArrow=none;html=1;rounded=0;" parent="1" edge="1">
          <mxGeometry width="50" height="50" relative="1" as="geometry">
            <mxPoint x="360" y="199" as="sourcePoint" />
            <mxPoint x="360" y="150" as="targetPoint" />
          </mxGeometry>
        </mxCell>
        <mxCell id="3Z7lKHtcf9GDz0rVuoE6-29" value="" style="shape=partialRectangle;whiteSpace=wrap;html=1;bottom=0;right=0;fillColor=none;" parent="1" vertex="1">
          <mxGeometry x="500" y="150" width="260" height="50" as="geometry" />
        </mxCell>
        <mxCell id="3Z7lKHtcf9GDz0rVuoE6-31" value="" style="endArrow=none;html=1;rounded=0;entryX=1;entryY=1;entryDx=0;entryDy=0;" parent="1" target="3Z7lKHtcf9GDz0rVuoE6-9" edge="1">
          <mxGeometry width="50" height="50" relative="1" as="geometry">
            <mxPoint x="480" y="150" as="sourcePoint" />
            <mxPoint x="370" y="110" as="targetPoint" />
            <Array as="points">
              <mxPoint x="510" y="150" />
            </Array>
          </mxGeometry>
        </mxCell>
        <mxCell id="3Z7lKHtcf9GDz0rVuoE6-34" value="" style="endArrow=none;html=1;rounded=0;" parent="1" edge="1">
          <mxGeometry width="50" height="50" relative="1" as="geometry">
            <mxPoint x="629.5799999999999" y="200" as="sourcePoint" />
            <mxPoint x="629.5799999999999" y="151" as="targetPoint" />
          </mxGeometry>
        </mxCell>
        <mxCell id="3Z7lKHtcf9GDz0rVuoE6-35" value="" style="endArrow=none;html=1;rounded=0;" parent="1" edge="1">
          <mxGeometry width="50" height="50" relative="1" as="geometry">
            <mxPoint x="759.5799999999999" y="199" as="sourcePoint" />
            <mxPoint x="759.5799999999999" y="150" as="targetPoint" />
          </mxGeometry>
        </mxCell>
        <mxCell id="3Z7lKHtcf9GDz0rVuoE6-42" value="Legenda" style="rounded=0;whiteSpace=wrap;html=1;verticalAlign=top;align=right;spacingTop=1;spacingBottom=0;spacingLeft=7;spacing=7;" parent="1" vertex="1">
          <mxGeometry x="680" y="760" width="130" height="90" as="geometry" />
        </mxCell>
        <mxCell id="3Z7lKHtcf9GDz0rVuoE6-43" value="Front-End" style="text;html=1;align=center;verticalAlign=middle;whiteSpace=wrap;rounded=0;spacingTop=1;spacing=0;" parent="1" vertex="1">
          <mxGeometry x="690" y="790" width="110" height="40" as="geometry" />
        </mxCell>
        <mxCell id="3Z7lKHtcf9GDz0rVuoE6-48" value="" style="rounded=1;whiteSpace=wrap;html=1;fillColor=#0000FF;" parent="1" vertex="1">
          <mxGeometry x="690" y="800" width="20" height="20" as="geometry" />
        </mxCell>
        <mxCell id="3Z7lKHtcf9GDz0rVuoE6-51" style="edgeStyle=orthogonalEdgeStyle;rounded=0;orthogonalLoop=1;jettySize=auto;html=1;exitX=0.5;exitY=1;exitDx=0;exitDy=0;" parent="1" source="3Z7lKHtcf9GDz0rVuoE6-42" target="3Z7lKHtcf9GDz0rVuoE6-42" edge="1">
          <mxGeometry relative="1" as="geometry" />
        </mxCell>
        <mxCell id="3Z7lKHtcf9GDz0rVuoE6-62" value="" style="endArrow=classic;html=1;rounded=0;" parent="1" edge="1">
          <mxGeometry width="50" height="50" relative="1" as="geometry">
            <mxPoint x="634.58" y="260" as="sourcePoint" />
            <mxPoint x="634.58" y="320" as="targetPoint" />
            <Array as="points">
              <mxPoint x="634.58" y="260" />
            </Array>
          </mxGeometry>
        </mxCell>
        <mxCell id="3Z7lKHtcf9GDz0rVuoE6-63" value="" style="endArrow=classic;html=1;rounded=0;" parent="1" edge="1">
          <mxGeometry width="50" height="50" relative="1" as="geometry">
            <mxPoint x="760" y="260" as="sourcePoint" />
            <mxPoint x="760" y="320" as="targetPoint" />
            <Array as="points">
              <mxPoint x="760" y="260" />
            </Array>
          </mxGeometry>
        </mxCell>
        <mxCell id="nBirWEmgf5lx1UCFYcyC-9" value="SVC" style="whiteSpace=wrap;html=1;align=center;verticalAlign=middle;treeFolding=1;treeMoving=1;" vertex="1" parent="1">
          <mxGeometry x="-230" y="300" width="100" height="60" as="geometry" />
        </mxCell>
        <mxCell id="nBirWEmgf5lx1UCFYcyC-10" value="BONIFICI" style="whiteSpace=wrap;html=1;align=center;verticalAlign=middle;treeFolding=1;treeMoving=1;" vertex="1" parent="1">
          <mxGeometry x="-10" y="300" width="100" height="60" as="geometry" />
        </mxCell>
        <mxCell id="nBirWEmgf5lx1UCFYcyC-12" value="CONTI" style="whiteSpace=wrap;html=1;align=center;verticalAlign=middle;treeFolding=1;treeMoving=1;newEdgeStyle={&quot;edgeStyle&quot;:&quot;elbowEdgeStyle&quot;,&quot;startArrow&quot;:&quot;none&quot;,&quot;endArrow&quot;:&quot;none&quot;};" vertex="1" parent="1">
          <mxGeometry x="-120" y="380" width="100" height="60" as="geometry" />
        </mxCell>
        <mxCell id="nBirWEmgf5lx1UCFYcyC-18" value="" style="line;strokeWidth=1;direction=south;html=1;perimeter=backbonePerimeter;points=[];outlineConnect=0;" vertex="1" parent="1">
          <mxGeometry x="-75" y="260" width="10" height="120" as="geometry" />
        </mxCell>
        <mxCell id="nBirWEmgf5lx1UCFYcyC-19" value="" style="line;strokeWidth=1;html=1;" vertex="1" parent="1">
          <mxGeometry x="-130" y="325" width="120" height="10" as="geometry" />
        </mxCell>
        <mxCell id="nBirWEmgf5lx1UCFYcyC-20" value="IMPOSTAZIONI PERSONALI" style="whiteSpace=wrap;html=1;align=center;verticalAlign=middle;treeFolding=1;treeMoving=1;" vertex="1" parent="1">
          <mxGeometry x="-40" y="520" width="100" height="60" as="geometry" />
        </mxCell>
        <mxCell id="nBirWEmgf5lx1UCFYcyC-21" value="RIBA" style="whiteSpace=wrap;html=1;align=center;verticalAlign=middle;treeFolding=1;treeMoving=1;" vertex="1" parent="1">
          <mxGeometry x="200" y="520" width="100" height="60" as="geometry" />
        </mxCell>
        <mxCell id="nBirWEmgf5lx1UCFYcyC-22" value="CRONOLOGIA" style="whiteSpace=wrap;html=1;align=center;verticalAlign=middle;treeFolding=1;treeMoving=1;" vertex="1" parent="1">
          <mxGeometry x="80" y="520" width="100" height="60" as="geometry" />
        </mxCell>
        <mxCell id="nBirWEmgf5lx1UCFYcyC-23" value="RUBRICA" style="whiteSpace=wrap;html=1;align=center;verticalAlign=middle;treeFolding=1;treeMoving=1;" vertex="1" parent="1">
          <mxGeometry x="320" y="520" width="100" height="60" as="geometry" />
        </mxCell>
        <mxCell id="nBirWEmgf5lx1UCFYcyC-24" value="" style="line;strokeWidth=1;direction=south;html=1;" vertex="1" parent="1">
          <mxGeometry x="215" y="260" width="10" height="160" as="geometry" />
        </mxCell>
        <mxCell id="nBirWEmgf5lx1UCFYcyC-27" value="" style="shape=partialRectangle;whiteSpace=wrap;html=1;bottom=0;right=0;fillColor=none;" vertex="1" parent="1">
          <mxGeometry y="420" width="220" height="100" as="geometry" />
        </mxCell>
        <mxCell id="nBirWEmgf5lx1UCFYcyC-28" value="" style="shape=partialRectangle;whiteSpace=wrap;html=1;bottom=0;right=0;fillColor=none;direction=south;" vertex="1" parent="1">
          <mxGeometry x="220" y="420" width="150" height="100" as="geometry" />
        </mxCell>
        <mxCell id="nBirWEmgf5lx1UCFYcyC-29" value="" style="line;strokeWidth=1;direction=south;html=1;perimeter=backbonePerimeter;points=[];outlineConnect=0;" vertex="1" parent="1">
          <mxGeometry x="125" y="420" width="10" height="100" as="geometry" />
        </mxCell>
        <mxCell id="nBirWEmgf5lx1UCFYcyC-30" value="" style="line;strokeWidth=1;direction=south;html=1;perimeter=backbonePerimeter;points=[];outlineConnect=0;" vertex="1" parent="1">
          <mxGeometry x="240" y="420" width="10" height="100" as="geometry" />
        </mxCell>
        <mxCell id="nBirWEmgf5lx1UCFYcyC-31" value="F24" style="whiteSpace=wrap;html=1;align=center;verticalAlign=middle;treeFolding=1;treeMoving=1;" vertex="1" parent="1">
          <mxGeometry x="310" y="310" width="100" height="60" as="geometry" />
        </mxCell>
        <mxCell id="nBirWEmgf5lx1UCFYcyC-32" value="" style="line;strokeWidth=1;direction=south;html=1;perimeter=backbonePerimeter;points=[];outlineConnect=0;" vertex="1" parent="1">
          <mxGeometry x="355" y="260" width="10" height="50" as="geometry" />
        </mxCell>
        <mxCell id="nBirWEmgf5lx1UCFYcyC-33" value="CARTE" style="whiteSpace=wrap;html=1;align=center;verticalAlign=middle;treeFolding=1;treeMoving=1;" vertex="1" parent="1">
          <mxGeometry x="450" y="310" width="100" height="60" as="geometry" />
        </mxCell>
        <mxCell id="nBirWEmgf5lx1UCFYcyC-34" value="" style="line;strokeWidth=1;direction=south;html=1;perimeter=backbonePerimeter;points=[];outlineConnect=0;" vertex="1" parent="1">
          <mxGeometry x="495" y="260" width="10" height="50" as="geometry" />
        </mxCell>
        <mxCell id="nBirWEmgf5lx1UCFYcyC-35" value="" style="line;strokeWidth=1;direction=south;html=1;perimeter=backbonePerimeter;points=[];outlineConnect=0;" vertex="1" parent="1">
          <mxGeometry x="495" y="370" width="10" height="50" as="geometry" />
        </mxCell>
      </root>
    </mxGraphModel>
  </diagram>
</mxfile>
